<?xml version="1.0" encoding="utf-8"?>
<!-- Generator: Adobe Illustrator 22.1.0, SVG Export Plug-In . SVG Version: 6.00 Build 0)  -->
<svg version="1.1" id="Layer_1" xmlns="http://www.w3.org/2000/svg" xmlns:xlink="http://www.w3.org/1999/xlink" x="0px" y="0px"
	 viewBox="0 0 629 629" style="enable-background:new 0 0 629 629;" xml:space="preserve">
<style type="text/css">
	.st0{display:none;}
	.st1{fill:#FFFFFF;}
</style>
<rect class="st0" width="629" height="629"/>
<g>
	<g>
		<g>
			<path class="st1" d="M314.5,91.6c-94.2,0-170.6,76.4-170.6,170.6c0,94.2,76.4,170.6,170.6,170.6c94.2,0,170.6-76.4,170.6-170.6
				C485.1,168,408.7,91.6,314.5,91.6z M314.5,424.4c-89.5,0-162.1-72.6-162.1-162.1c0-89.5,72.6-162.1,162.1-162.1
				c89.5,0,162.1,72.6,162.1,162.1C476.6,351.8,404,424.4,314.5,424.4z"/>
		</g>
		<g>
			<path class="st1" d="M314.5,126.7c-10.8,0-21.3,1.3-31.4,3.7v154l52.9-62.2h40.4l-48.5,62.2l48.5,73.7h-41.2l-27-49.3l-25.2,30
				V358h-30.6V141.7c-43.7,22.5-73.6,68-73.6,120.6c0,74.9,60.7,135.6,135.6,135.6c74.9,0,135.6-60.7,135.6-135.6
				C450.1,187.4,389.4,126.7,314.5,126.7z"/>
		</g>
	</g>
</g>
<g>
	<g>
		<g>
			<polygon class="st1" points="237.7,480.9 176.7,480.9 176.7,492.4 200.4,492.4 200.4,537.4 214,537.4 214,492.4 237.7,492.4 			
				"/>
		</g>
		<g>
			<polygon class="st1" points="341.2,480.9 327.6,480.9 327.6,537.4 375.9,537.4 375.9,526 341.2,526 			"/>
		</g>
		<g>
			<polygon class="st1" points="408,506.4 389.6,480.9 373.4,480.9 401.2,518.3 401.2,537.4 414.7,537.4 414.7,518.3 441.8,480.9 
				426.4,480.9 			"/>
		</g>
		<g>
			<path class="st1" d="M512.1,506.4c-1.6-1.2-3.6-1.9-6-2.4c-2.4-0.4-5.2-0.7-8.4-0.8l-25-1c-1-0.1-1.9-0.1-2.7-0.2
				c-0.8-0.1-1.5-0.3-2.1-0.6c-0.6-0.3-1-0.8-1.3-1.4c-0.3-0.6-0.5-1.5-0.5-2.6c0-2.2,0.6-3.6,1.9-4.3c1.2-0.7,2.8-1,4.7-1h22.7
				c1.4,0,2.6,0.1,3.5,0.2c0.9,0.2,1.6,0.4,2.1,0.8c0.5,0.4,0.9,0.9,1.1,1.5c0.2,0.6,0.3,1.3,0.3,2.2h14.6c0-5.4-1.7-9.5-5.1-12.1
				c-3.4-2.6-8.7-3.9-15.8-3.9h-24.8c-3.6,0-6.7,0.3-9.3,0.9c-2.6,0.6-4.7,1.5-6.3,2.8c-1.6,1.3-2.8,3-3.6,5.1
				c-0.8,2.1-1.1,4.6-1.1,7.6c0,3.5,0.4,6.3,1.1,8.3c0.7,2,1.9,3.6,3.6,4.6c1.7,1.1,3.8,1.8,6.5,2.2c2.6,0.4,5.9,0.7,9.7,0.8
				l21.6,0.9c2,0.1,3.5,0.3,4.8,0.6c1.2,0.3,2.2,0.7,2.8,1.2c0.7,0.5,1.2,1.1,1.4,1.9c0.3,0.7,0.4,1.6,0.4,2.6
				c0,2.3-0.7,3.8-2.2,4.6c-1.5,0.8-3.7,1.1-6.7,1.1h-22.6c-1.9,0-3.5-0.4-4.7-1.3c-1.2-0.9-1.9-2-1.9-3.4h-13.8
				c0,2.7,0.3,5.1,0.9,7.1c0.6,2,1.7,3.7,3.2,5c1.5,1.3,3.5,2.3,5.9,3c2.4,0.7,5.4,1,9,1h28c3.5,0,6.5-0.3,8.9-1
				c2.4-0.6,4.4-1.7,5.9-3.1c1.5-1.4,2.6-3.2,3.2-5.3c0.7-2.1,1-4.7,1-7.8c0-3.7-0.4-6.7-1.2-8.8
				C514.9,509.2,513.7,507.6,512.1,506.4z"/>
		</g>
		<g>
			<polygon class="st1" points="530.8,480.9 530.8,492.4 554.5,492.4 554.5,537.4 568.1,537.4 568.1,492.4 591.8,492.4 591.8,480.9 
							"/>
		</g>
		<g>
			<polygon class="st1" points="131.5,480.9 102.4,537.4 118.1,537.4 142.2,489.7 166.1,537.4 182,537.4 152.8,480.9 			"/>
		</g>
		<g>
			<polygon class="st1" points="264.4,480.9 235.3,537.4 251.1,537.4 275.1,489.7 299,537.4 314.9,537.4 285.8,480.9 			"/>
		</g>
		<g>
			<polygon class="st1" points="78.4,480.9 50.5,511.6 50.5,480.9 37.2,480.9 37.2,537.4 50.5,537.4 50.5,529.6 62.7,515.7 
				78.8,537.4 93.2,537.4 71.1,506.9 93.2,480.9 			"/>
		</g>
	</g>
</g>
</svg>
