<?xml version="1.0" encoding="utf-8"?>
<!-- Generator: Adobe Illustrator 22.1.0, SVG Export Plug-In . SVG Version: 6.00 Build 0)  -->
<svg version="1.1" id="Layer_1" xmlns="http://www.w3.org/2000/svg" xmlns:xlink="http://www.w3.org/1999/xlink" x="0px" y="0px"
	 viewBox="0 0 358.5 366" style="enable-background:new 0 0 358.5 366;" xml:space="preserve">
<style type="text/css">
	.st0{display:none;fill:#FFFFFF;}
	.st1{fill:#0F9FDA;}
	.st2{display:none;}
	.st3{display:inline;}
</style>
<rect x="-133.9" y="-79" class="st0" width="629" height="629"/>
<g>
	<g>
		<g>
			<path class="st1" d="M180.6,12.6C86.3,12.6,9.9,89,9.9,183.3c0,94.2,76.4,170.6,170.6,170.6c94.2,0,170.6-76.4,170.6-170.6
				C351.2,89,274.8,12.6,180.6,12.6z M180.6,345.4c-89.5,0-162.1-72.6-162.1-162.1C18.4,93.7,91,21.2,180.6,21.2
				c89.5,0,162.1,72.6,162.1,162.1C342.7,272.8,270.1,345.4,180.6,345.4z"/>
		</g>
		<g>
			<path class="st1" d="M180.6,47.7c-10.8,0-21.3,1.3-31.4,3.7v154l52.9-62.2h40.4L194,205.4l48.5,73.7h-41.2l-27-49.3l-25.2,30V279
				h-30.6V62.7C74.9,85.2,45,130.7,45,183.3c0,74.9,60.7,135.6,135.6,135.6c74.9,0,135.6-60.7,135.6-135.6
				C316.1,108.4,255.4,47.7,180.6,47.7z"/>
		</g>
	</g>
</g>
<g class="st2">
	<g class="st3">
		<g>
			<polygon class="st1" points="103.8,401.9 42.7,401.9 42.7,413.4 66.5,413.4 66.5,458.4 80.1,458.4 80.1,413.4 103.8,413.4 			"/>
		</g>
		<g>
			<polygon class="st1" points="207.2,401.9 193.6,401.9 193.6,458.4 241.9,458.4 241.9,447.1 207.2,447.1 			"/>
		</g>
		<g>
			<polygon class="st1" points="274.1,427.4 255.7,401.9 239.5,401.9 267.2,439.3 267.2,458.4 280.8,458.4 280.8,439.3 307.9,401.9 
				292.4,401.9 			"/>
		</g>
		<g>
			<path class="st1" d="M378.2,427.4c-1.6-1.2-3.6-1.9-6-2.4c-2.4-0.4-5.2-0.7-8.4-0.8l-25-1c-1-0.1-1.9-0.1-2.7-0.2
				c-0.8-0.1-1.5-0.3-2.1-0.6c-0.6-0.3-1-0.8-1.3-1.4c-0.3-0.6-0.5-1.5-0.5-2.6c0-2.2,0.6-3.6,1.9-4.3c1.2-0.7,2.8-1,4.7-1h22.7
				c1.4,0,2.6,0.1,3.5,0.2c0.9,0.2,1.6,0.4,2.1,0.8c0.5,0.4,0.9,0.9,1.1,1.5c0.2,0.6,0.3,1.3,0.3,2.2h14.6c0-5.4-1.7-9.5-5.1-12.1
				c-3.4-2.6-8.7-3.9-15.8-3.9h-24.8c-3.6,0-6.7,0.3-9.3,0.9c-2.6,0.6-4.7,1.5-6.3,2.8c-1.6,1.3-2.8,3-3.6,5.1
				c-0.8,2.1-1.1,4.6-1.1,7.6c0,3.5,0.4,6.3,1.1,8.3c0.7,2,1.9,3.6,3.6,4.6c1.7,1.1,3.8,1.8,6.5,2.2c2.6,0.4,5.9,0.7,9.7,0.8
				l21.6,0.9c2,0.1,3.5,0.3,4.8,0.6c1.2,0.3,2.2,0.7,2.8,1.2c0.7,0.5,1.2,1.1,1.4,1.9c0.3,0.7,0.4,1.6,0.4,2.6
				c0,2.3-0.7,3.8-2.2,4.6c-1.5,0.8-3.7,1.1-6.7,1.1h-22.6c-1.9,0-3.5-0.4-4.7-1.3c-1.2-0.9-1.9-2-1.9-3.4H317
				c0,2.7,0.3,5.1,0.9,7.1c0.6,2,1.7,3.7,3.2,5c1.5,1.3,3.5,2.3,5.9,3c2.4,0.7,5.4,1,9,1h28c3.5,0,6.5-0.3,8.9-1
				c2.4-0.6,4.4-1.7,5.9-3.1c1.5-1.4,2.6-3.2,3.2-5.3c0.7-2.1,1-4.7,1-7.8c0-3.7-0.4-6.7-1.2-8.8S379.8,428.6,378.2,427.4z"/>
		</g>
		<g>
			<polygon class="st1" points="396.8,401.9 396.8,413.4 420.6,413.4 420.6,458.4 434.1,458.4 434.1,413.4 457.9,413.4 457.9,401.9 
							"/>
		</g>
		<g>
			<polygon class="st1" points="-2.5,401.9 -31.6,458.4 -15.8,458.4 8.2,410.7 32.2,458.4 48,458.4 18.9,401.9 			"/>
		</g>
		<g>
			<polygon class="st1" points="130.5,401.9 101.4,458.4 117.1,458.4 141.2,410.7 165.1,458.4 181,458.4 151.8,401.9 			"/>
		</g>
		<g>
			<polygon class="st1" points="-55.5,401.9 -83.4,432.6 -83.4,401.9 -96.8,401.9 -96.8,458.4 -83.4,458.4 -83.4,450.6 -71.2,436.7 
				-55.1,458.4 -40.7,458.4 -62.8,427.9 -40.7,401.9 			"/>
		</g>
	</g>
</g>
</svg>
